<svg width="32" height="32" viewBox="0 0 32 32" fill="none" xmlns="http://www.w3.org/2000/svg">
<path d="M8.57192 7.33008C9.39192 7.93608 10.1319 8.50008 10.9089 9.44208C11.5629 10.2351 12.3459 13.0671 11.2729 14.4551C10.0589 16.0241 6.54492 16.5541 6.54492 18.0001C6.54492 19.0881 8.08592 20.3301 8.90892 21.5451C10.1469 23.3721 9.58392 25.1421 8.90892 26.2721C8.55892 26.8581 7.96392 27.3271 7.34392 27.6991" stroke="#FDB515" stroke-width="2" stroke-miterlimit="10" stroke-linecap="round" stroke-linejoin="round"/>
<path d="M28.652 15C28.88 15.963 29 16.967 29 18C29 25.18 23.18 31 16 31C8.82 31 3 25.18 3 18C3 10.82 8.82 5 16 5C16.09 5 16.181 5.001 16.271 5.003" stroke="#FDB515" stroke-width="2" stroke-miterlimit="10" stroke-linecap="round" stroke-linejoin="round"/>
<path d="M22 8C22.5523 8 23 7.55228 23 7C23 6.44772 22.5523 6 22 6C21.4477 6 21 6.44772 21 7C21 7.55228 21.4477 8 22 8Z" fill="#FDB515"/>
<path d="M15.8356 30.9987C13.2426 28.9027 13.1026 22.0077 17.1846 20.4077C19.3506 19.5587 19.9486 23.8267 24.3006 23.1107C25.4536 22.9207 26.6097 23.6247 26.6937 25.3937" stroke="#FDB515" stroke-width="2" stroke-miterlimit="10" stroke-linecap="round" stroke-linejoin="round"/>
<path d="M28 6.844C28 10.451 22 16 22 16C22 16 16 10.451 16 6.844C16 3.146 19.101 1 22 1C24.899 1 28 3.146 28 6.844Z" stroke="#FDB515" stroke-width="2" stroke-miterlimit="10" stroke-linecap="round" stroke-linejoin="round"/>
</svg>
